<svg xmlns="http://www.w3.org/2000/svg" width="1000" height="418" viewBox="0 0 1000 418" role="img" aria-label="Layered architecture: Layers routes → middlewares → controllers → services → repositories; MVC in .NET and Python. · Security: JWT, bcrypt password hashing, role- and unit-based authorization and access logging. · Business rules: Payroll engine: 13th salary in installments, prorated pay, alimony and PDF payslips. · Data: Relational modeling, migrations, transactions and EF Core on SQL Server. · Testing: 20+ suites with node:test, including payslip regression tests and payroll scenarios. · Beyond back-end: Computer vision and ML (MediaPipe, scikit-learn), Solidity contracts and Web3 integration.">
<defs><linearGradient id="cbg" x1="0" y1="0" x2="1" y2="1"><stop offset="0" stop-color="#161b22"/><stop offset="1" stop-color="#0d1117"/></linearGradient></defs>
<style>
  .sans{font-family:'Segoe UI',Ubuntu,'Helvetica Neue',Arial,sans-serif} .mono{font-family:'JetBrains Mono','Cascadia Code','SFMono-Regular',Consolas,'Liberation Mono',monospace}
  .in{opacity:0;animation:up .7s cubic-bezier(.2,.7,.2,1) forwards}
  @keyframes up{from{opacity:0;transform:translateY(10px)}to{opacity:1;transform:none}}
  .blink{animation:blink 1.1s steps(1) infinite}
  @keyframes blink{50%{opacity:0}}
  @media (prefers-reduced-motion:reduce){*{animation:none!important;opacity:1!important}}</style>
<g class="in" style="animation-delay:0.10s">
  <rect x="0.5" y="0.5" width="321" height="199" rx="14" fill="url(#cbg)" stroke="#30363d"/>
  <rect x="0.5" y="0.5" width="321" height="199" rx="14" fill="#58a6ff" fill-opacity=".05"/>
  <rect x="24" y="0" width="56" height="2" rx="1" fill="#58a6ff"/>
  <rect x="24" y="24" width="38" height="38" rx="10" fill="#58a6ff" fill-opacity=".14" stroke="#58a6ff" stroke-opacity=".4"/>
  <g transform="translate(31 31)" fill="none" stroke="#58a6ff" stroke-width="1.7" stroke-linecap="round" stroke-linejoin="round"><path d="M12 3 3 8l9 5 9-5-9-5Z"/><path d="m3 12.5 9 5 9-5"/><path d="m3 17 9 5 9-5"/></g>
  <text x="76" y="49" class="sans" font-size="17" font-weight="700" fill="#e6edf3">Layered architecture</text>
  <text x="24" y="92" class="sans" font-size="13" fill="#8b949e">Layers routes → middlewares →</text><text x="24" y="112" class="sans" font-size="13" fill="#8b949e">controllers → services → repositories;</text><text x="24" y="132" class="sans" font-size="13" fill="#8b949e">MVC in .NET and Python.</text>
  <g transform="translate(24 156)"><rect width="74.8" height="26" rx="13" fill="#58a6ff" fill-opacity=".12" stroke="#58a6ff" stroke-opacity=".45"/><text x="11" y="14" class="mono" font-size="11" fill="#58a6ff">PeopleOS</text></g><g transform="translate(104.8 156)"><rect width="41.8" height="26" rx="13" fill="#a371f7" fill-opacity=".12" stroke="#a371f7" stroke-opacity=".45"/><text x="11" y="14" class="mono" font-size="11" fill="#a371f7">IEL</text></g><g transform="translate(152.6 156)"><rect width="107.8" height="26" rx="13" fill="#39c5cf" fill-opacity=".12" stroke="#39c5cf" stroke-opacity=".45"/><text x="11" y="14" class="mono" font-size="11" fill="#39c5cf">LIBRAS Bridge</text></g>
</g>
<g class="in" style="animation-delay:0.20s">
  <rect x="339.5" y="0.5" width="321" height="199" rx="14" fill="url(#cbg)" stroke="#30363d"/>
  <rect x="339.5" y="0.5" width="321" height="199" rx="14" fill="#a371f7" fill-opacity=".05"/>
  <rect x="363" y="0" width="56" height="2" rx="1" fill="#a371f7"/>
  <rect x="363" y="24" width="38" height="38" rx="10" fill="#a371f7" fill-opacity=".14" stroke="#a371f7" stroke-opacity=".4"/>
  <g transform="translate(370 31)" fill="none" stroke="#a371f7" stroke-width="1.7" stroke-linecap="round" stroke-linejoin="round"><rect x="4.5" y="10.5" width="15" height="10" rx="2.5"/><path d="M8 10.5V7.5a4 4 0 0 1 8 0v3"/><circle cx="12" cy="15.5" r="1.3"/></g>
  <text x="415" y="49" class="sans" font-size="17" font-weight="700" fill="#e6edf3">Security</text>
  <text x="363" y="92" class="sans" font-size="13" fill="#8b949e">JWT, bcrypt password hashing,</text><text x="363" y="112" class="sans" font-size="13" fill="#8b949e">role- and unit-based authorization</text><text x="363" y="132" class="sans" font-size="13" fill="#8b949e">and access logging.</text>
  <g transform="translate(363 156)"><rect width="74.8" height="26" rx="13" fill="#58a6ff" fill-opacity=".12" stroke="#58a6ff" stroke-opacity=".45"/><text x="11" y="14" class="mono" font-size="11" fill="#58a6ff">PeopleOS</text></g>
</g>
<g class="in" style="animation-delay:0.30s">
  <rect x="678.5" y="0.5" width="321" height="199" rx="14" fill="url(#cbg)" stroke="#30363d"/>
  <rect x="678.5" y="0.5" width="321" height="199" rx="14" fill="#3fb950" fill-opacity=".05"/>
  <rect x="702" y="0" width="56" height="2" rx="1" fill="#3fb950"/>
  <rect x="702" y="24" width="38" height="38" rx="10" fill="#3fb950" fill-opacity=".14" stroke="#3fb950" stroke-opacity=".4"/>
  <g transform="translate(709 31)" fill="none" stroke="#3fb950" stroke-width="1.7" stroke-linecap="round" stroke-linejoin="round"><rect x="5" y="2.5" width="14" height="19" rx="2.5"/><path d="M8.5 7h7"/><path d="M8.5 12h.01M12 12h.01M15.5 12h.01M8.5 15.5h.01M12 15.5h.01M15.5 15.5h.01M8.5 19h.01M12 19h.01M15.5 19h.01" stroke-width="2.4"/></g>
  <text x="754" y="49" class="sans" font-size="17" font-weight="700" fill="#e6edf3">Business rules</text>
  <text x="702" y="92" class="sans" font-size="13" fill="#8b949e">Payroll engine: 13th salary in</text><text x="702" y="112" class="sans" font-size="13" fill="#8b949e">installments, prorated pay, alimony</text><text x="702" y="132" class="sans" font-size="13" fill="#8b949e">and PDF payslips.</text>
  <g transform="translate(702 156)"><rect width="74.8" height="26" rx="13" fill="#58a6ff" fill-opacity=".12" stroke="#58a6ff" stroke-opacity=".45"/><text x="11" y="14" class="mono" font-size="11" fill="#58a6ff">PeopleOS</text></g>
</g>
<g class="in" style="animation-delay:0.40s">
  <rect x="0.5" y="217.5" width="321" height="199" rx="14" fill="url(#cbg)" stroke="#30363d"/>
  <rect x="0.5" y="217.5" width="321" height="199" rx="14" fill="#d29922" fill-opacity=".05"/>
  <rect x="24" y="217" width="56" height="2" rx="1" fill="#d29922"/>
  <rect x="24" y="241" width="38" height="38" rx="10" fill="#d29922" fill-opacity=".14" stroke="#d29922" stroke-opacity=".4"/>
  <g transform="translate(31 248)" fill="none" stroke="#d29922" stroke-width="1.7" stroke-linecap="round" stroke-linejoin="round"><ellipse cx="12" cy="5.5" rx="7.5" ry="3"/><path d="M4.5 5.5v13c0 1.7 3.4 3 7.5 3s7.5-1.3 7.5-3v-13"/><path d="M4.5 12c0 1.7 3.4 3 7.5 3s7.5-1.3 7.5-3"/></g>
  <text x="76" y="266" class="sans" font-size="17" font-weight="700" fill="#e6edf3">Data</text>
  <text x="24" y="309" class="sans" font-size="13" fill="#8b949e">Relational modeling, migrations,</text><text x="24" y="329" class="sans" font-size="13" fill="#8b949e">transactions and EF Core on</text><text x="24" y="349" class="sans" font-size="13" fill="#8b949e">SQL Server.</text>
  <g transform="translate(24 373)"><rect width="74.8" height="26" rx="13" fill="#58a6ff" fill-opacity=".12" stroke="#58a6ff" stroke-opacity=".45"/><text x="11" y="14" class="mono" font-size="11" fill="#58a6ff">PeopleOS</text></g><g transform="translate(104.8 373)"><rect width="41.8" height="26" rx="13" fill="#a371f7" fill-opacity=".12" stroke="#a371f7" stroke-opacity=".45"/><text x="11" y="14" class="mono" font-size="11" fill="#a371f7">IEL</text></g><g transform="translate(152.6 373)"><rect width="114.39999999999999" height="26" rx="13" fill="#d29922" fill-opacity=".12" stroke="#d29922" stroke-opacity=".45"/><text x="11" y="14" class="mono" font-size="11" fill="#d29922">BiblioControle</text></g>
</g>
<g class="in" style="animation-delay:0.50s">
  <rect x="339.5" y="217.5" width="321" height="199" rx="14" fill="url(#cbg)" stroke="#30363d"/>
  <rect x="339.5" y="217.5" width="321" height="199" rx="14" fill="#f78166" fill-opacity=".05"/>
  <rect x="363" y="217" width="56" height="2" rx="1" fill="#f78166"/>
  <rect x="363" y="241" width="38" height="38" rx="10" fill="#f78166" fill-opacity=".14" stroke="#f78166" stroke-opacity=".4"/>
  <g transform="translate(370 248)" fill="none" stroke="#f78166" stroke-width="1.7" stroke-linecap="round" stroke-linejoin="round"><circle cx="12" cy="12" r="9"/><path d="m8 12.3 2.7 2.7L16.2 9.5"/></g>
  <text x="415" y="266" class="sans" font-size="17" font-weight="700" fill="#e6edf3">Testing</text>
  <text x="363" y="309" class="sans" font-size="13" fill="#8b949e">20+ suites with node:test, including</text><text x="363" y="329" class="sans" font-size="13" fill="#8b949e">payslip regression tests and</text><text x="363" y="349" class="sans" font-size="13" fill="#8b949e">payroll scenarios.</text>
  <g transform="translate(363 373)"><rect width="74.8" height="26" rx="13" fill="#58a6ff" fill-opacity=".12" stroke="#58a6ff" stroke-opacity=".45"/><text x="11" y="14" class="mono" font-size="11" fill="#58a6ff">PeopleOS</text></g>
</g>
<g class="in" style="animation-delay:0.60s">
  <rect x="678.5" y="217.5" width="321" height="199" rx="14" fill="url(#cbg)" stroke="#30363d"/>
  <rect x="678.5" y="217.5" width="321" height="199" rx="14" fill="#39c5cf" fill-opacity=".05"/>
  <rect x="702" y="217" width="56" height="2" rx="1" fill="#39c5cf"/>
  <rect x="702" y="241" width="38" height="38" rx="10" fill="#39c5cf" fill-opacity=".14" stroke="#39c5cf" stroke-opacity=".4"/>
  <g transform="translate(709 248)" fill="none" stroke="#39c5cf" stroke-width="1.7" stroke-linecap="round" stroke-linejoin="round"><path d="M12 2.5c.6 4.6 2.9 6.9 7.5 7.5-4.6.6-6.9 2.9-7.5 7.5-.6-4.6-2.9-6.9-7.5-7.5 4.6-.6 6.9-2.9 7.5-7.5Z"/><path d="M19 16.5c.2 1.6 1 2.3 2.5 2.5-1.6.2-2.3 1-2.5 2.5-.2-1.6-1-2.3-2.5-2.5 1.6-.2 2.3-1 2.5-2.5Z"/></g>
  <text x="754" y="266" class="sans" font-size="17" font-weight="700" fill="#e6edf3">Beyond back-end</text>
  <text x="702" y="309" class="sans" font-size="13" fill="#8b949e">Computer vision and ML (MediaPipe,</text><text x="702" y="329" class="sans" font-size="13" fill="#8b949e">scikit-learn), Solidity contracts</text><text x="702" y="349" class="sans" font-size="13" fill="#8b949e">and Web3 integration.</text>
  <g transform="translate(702 373)"><rect width="107.8" height="26" rx="13" fill="#39c5cf" fill-opacity=".12" stroke="#39c5cf" stroke-opacity=".45"/><text x="11" y="14" class="mono" font-size="11" fill="#39c5cf">LIBRAS Bridge</text></g><g transform="translate(815.8 373)"><rect width="88" height="26" rx="13" fill="#3fb950" fill-opacity=".12" stroke="#3fb950" stroke-opacity=".45"/><text x="11" y="14" class="mono" font-size="11" fill="#3fb950">GreenChain</text></g>
</g>
</svg>